<svg width="429" height="321" viewBox="0 0 429 321" fill="none" xmlns="http://www.w3.org/2000/svg">
<path d="M429 320.074C429 320.588 428.587 321 428.073 321H0.927189C0.41295 321 0 320.588 0 320.074C0 319.56 0.41295 319.148 0.927189 319.148H428.073C428.587 319.148 429 319.56 429 320.074Z" fill="#FAFAFA"/>
<path d="M16.3961 285.818L25.0645 291.354L17.204 303.636L8.53568 298.101L16.3961 285.818Z" fill="#F1A1A4"/>
<path d="M43.8872 120.714L54.8375 124.449L55.0093 108.655L45.0444 108.544L43.8872 120.714Z" fill="#F1A1A4"/>
<path d="M53.7309 113.016C47.6833 113.016 42.7807 108.119 42.7807 102.078C42.7807 96.037 47.6833 91.1399 53.7309 91.1399C59.7786 91.1399 64.6812 96.037 64.6812 102.078C64.6812 108.119 59.7786 113.016 53.7309 113.016Z" fill="#F1A1A4"/>
<path d="M50.7343 100.962C52.5635 100.927 53.7914 99.0948 54.5242 97.4089C55.2569 95.7331 56.0098 93.7949 57.7127 93.1134C59.1074 92.5582 61.5127 96.4347 62.6244 95.4252C63.7816 94.3703 62.7255 88.8584 61.5177 87.864C60.31 86.8696 58.6526 86.6576 57.0962 86.5617C53.2811 86.3447 49.4457 86.6071 45.6963 87.3491C43.3819 87.8034 40.9867 88.505 39.304 90.1556C37.1665 92.2503 36.5905 95.4404 36.4086 98.4235C36.2165 101.477 36.3631 104.677 37.8184 107.373C39.2788 110.063 42.3662 112.067 45.3628 111.421C45.6811 109.801 45.3982 108.14 45.2971 106.484C45.196 104.839 45.3426 103.062 46.3633 101.76C47.384 100.458 49.5367 99.963 50.6939 101.139" fill="#2F2E43"/>
<path d="M37.2223 104.602C36.1358 103.789 34.8372 103.103 33.488 103.254C32.0276 103.41 30.7845 104.602 30.3954 106.015C30.0063 107.428 30.4106 108.993 31.2949 110.164C32.1792 111.335 33.5082 112.112 34.9231 112.511C35.7417 112.743 36.6361 112.839 37.4244 112.511C38.5816 112.027 39.2182 110.568 38.7786 109.392" fill="#2F2E43"/>
<path d="M77.971 207.935C78.6582 211.534 77.2888 214.805 74.9037 215.234C72.5237 215.663 70.0325 213.089 69.3402 209.49C69.0421 208.057 69.1078 206.573 69.5322 205.164L61.1086 148.753L72.458 146.754L76.1923 203.973C77.1069 205.144 77.7183 206.502 77.971 207.951L77.971 207.935Z" fill="#F1A1A4"/>
<path d="M55.0398 117.2L62.7711 117.286C68.2285 118.17 69.6788 121.102 70.8562 126.493C72.6601 134.715 74.9644 145.674 74.4793 145.825C73.7062 146.078 60.482 152.114 53.7865 150.62L55.0347 117.2L55.0398 117.2Z" fill="#059A00"/>
<path d="M45.5439 296.496L55.8315 296.611L55.6685 311.188L45.3809 311.073L45.5439 296.496Z" fill="#F1A1A4"/>
<path d="M65.6159 320.128C66.7023 320.143 67.6574 320.128 68.385 320.067C71.1239 319.85 73.7465 317.861 75.0754 316.7C75.6717 316.18 75.8688 315.333 75.5707 314.606C75.3584 314.086 74.9238 313.687 74.3781 313.52L67.1773 311.38L55.5702 303.37L55.4388 303.602C55.3883 303.688 54.2159 305.742 53.8168 307.135C53.6652 307.665 53.6955 308.104 53.9178 308.448C54.0694 308.685 54.2817 308.826 54.4535 308.912C54.2412 309.129 53.5742 309.573 51.5226 309.876C48.5413 310.32 47.9399 307.221 47.9197 307.09L47.8995 306.984L47.8136 306.923C46.4037 305.989 45.5397 305.57 45.2365 305.656C45.0444 305.707 44.7362 305.803 43.7963 314.202C43.7104 314.464 43.0939 316.392 43.478 318.25C43.8923 320.269 52.7101 319.668 54.4686 319.532C54.5191 319.537 61.1085 320.082 65.626 320.128H65.6108L65.6159 320.128Z" fill="#2F2E43"/>
<path d="M27.631 317.705C28.8387 317.72 29.9504 317.584 30.7437 317.452C31.5219 317.321 32.1384 316.71 32.2698 315.933C32.3708 315.373 32.2041 314.813 31.8352 314.389L26.8629 308.766L21.264 295.834L21.0265 295.96C20.9406 296.005 18.8587 297.131 17.7773 298.1C17.368 298.469 17.1608 298.857 17.1608 299.271C17.1608 299.554 17.267 299.786 17.3731 299.942C17.0749 300.013 16.2765 300.033 14.3765 299.211C11.6124 298.009 12.7444 295.061 12.7949 294.945L12.8353 294.844L12.7898 294.753C12.0874 293.219 11.572 292.401 11.2739 292.31C11.0819 292.26 10.7736 292.164 5.52336 298.797C5.31114 298.973 3.76488 300.281 3.10794 302.057C2.39546 303.991 10.1824 308.14 11.759 308.952C11.8045 308.993 19.9451 315.035 23.2903 316.766C24.6193 317.452 26.2009 317.68 27.6411 317.69L27.6259 317.705L27.631 317.705Z" fill="#2F2E43"/>
<path d="M39.3445 174.48L68.1476 174.798L70.4619 201.591L57.925 300.361L43.2203 300.195L49.7338 243.142L25.3068 294.451L12.3404 285.163L31.502 237.221C31.502 237.221 25.3118 195.206 30.6581 184.818C35.9993 174.43 39.3394 174.465 39.3394 174.465V174.48L39.3445 174.48Z" fill="#2F2E43"/>
<path d="M25.0037 175.954L70.75 176.464L57.6825 117.236L37.7477 117.009L25.0037 175.954Z" fill="#059A00"/>
<path d="M20.5366 207.299C19.7685 210.888 21.0672 214.184 23.4371 214.664C25.8121 215.148 28.3589 212.63 29.122 209.041C29.4504 207.612 29.4201 206.128 29.031 204.71L38.7129 148.495L27.414 146.244L22.4063 203.372C21.4664 204.523 20.8247 205.871 20.5366 207.31V207.299Z" fill="#F1A1A4"/>
<path d="M45.4738 117.094L37.7425 117.009C32.2699 117.776 30.754 120.673 29.4502 126.039C27.4643 134.221 24.9226 145.119 25.3976 145.285C26.1707 145.548 39.2484 151.877 45.9741 150.535L45.4637 117.094L45.4738 117.094Z" fill="#059A00"/>
</svg>
