<svg width="318" height="317" viewBox="0 0 318 317" fill="none" xmlns="http://www.w3.org/2000/svg">
<g clip-path="url(#clip0_179_8632)">
<path d="M165.866 107.595C162.455 109.342 158.469 109.233 154.741 109.455C151.013 109.676 147.429 110.142 144.727 112.676C141.934 115.295 141.365 119.232 142.065 122.846C142.847 126.909 145.079 130.307 147.723 133.406C150.565 136.74 153.81 139.826 155.884 143.735C157.719 147.191 158.315 151.136 157.796 155.005C156.725 163.017 151.501 170.084 144.876 174.472C137.248 179.531 128.179 181.716 119.326 183.516C118.201 183.747 117.076 183.969 115.951 184.191C115.237 184.331 115.539 185.421 116.249 185.281C125.169 183.525 134.302 181.689 142.368 177.296C146.078 175.278 149.49 172.722 152.233 169.491C154.8 166.469 156.824 162.963 158.008 159.167C159.192 155.371 159.463 151.557 158.6 147.807C157.651 143.676 155.206 140.233 152.472 137.084C149.738 133.935 146.512 130.85 144.637 126.982C143.032 123.679 142.101 119.422 143.724 115.947C145.351 112.463 148.957 111.156 152.54 110.762C156.304 110.35 160.186 110.617 163.864 109.577C164.75 109.328 165.613 108.989 166.431 108.568C167.077 108.238 166.508 107.26 165.862 107.591L165.866 107.595Z" fill="#059A00"/>
<path d="M0 316.461C0 316.76 0.239502 317 0.53775 317H117.505C117.803 317 118.043 316.76 118.043 316.461C118.043 316.163 117.803 315.923 117.505 315.923H0.53775C0.239502 315.923 0 316.163 0 316.461Z" fill="#3F3D58"/>
<path d="M199.957 316.461C199.957 316.76 200.197 317 200.495 317H317.462C317.76 317 318 316.76 318 316.461C318 316.163 317.76 315.923 317.462 315.923H200.495C200.197 315.923 199.957 316.163 199.957 316.461Z" fill="#3F3D58"/>
<path d="M165.32 110.582L213.103 37.0128L165.32 0L117.532 37.0128L165.32 110.582Z" fill="#059A00"/>
<path d="M165.541 0H165.089V110.582H165.541V0Z" fill="#FAFAFA"/>
<path d="M117.627 37.2169L117.437 36.8052C117.559 36.7509 129.733 31.1182 147.533 28.3222C163.964 25.7434 188.7 25.1236 213.202 36.8052L213.008 37.2124C188.615 25.5805 163.982 26.2003 147.615 28.7656C129.873 31.548 117.745 37.1535 117.627 37.2124V37.2169Z" fill="#FAFAFA"/>
<path d="M89.7998 202.659L97.5497 202.447L93.9617 192.457L87.6714 194.719L89.7998 202.659Z" fill="#FAAFB2"/>
<path d="M91.6164 195.967C95.672 195.967 98.9596 192.676 98.9596 188.616C98.9596 184.555 95.672 181.264 91.6164 181.264C87.5609 181.264 84.2732 184.555 84.2732 188.616C84.2732 192.676 87.5609 195.967 91.6164 195.967Z" fill="#FAAFB2"/>
<path d="M84.5712 311.513H90.3237V303.342H84.5712V311.513Z" fill="#FAAFB2"/>
<path d="M89.6822 316.195C88.697 316.286 83.7759 316.675 83.5319 315.544C83.306 314.508 83.6359 313.422 83.6856 313.277C84.16 308.563 84.3363 308.513 84.4402 308.481C84.6074 308.432 85.0955 308.662 85.8908 309.178L85.9405 309.21L85.9495 309.269C85.9631 309.341 86.3156 311.074 87.983 310.807C89.1263 310.626 89.4969 310.373 89.6144 310.25C89.5149 310.205 89.3975 310.128 89.3116 309.997C89.1896 309.807 89.167 309.558 89.2483 309.26C89.4652 308.477 90.1069 307.319 90.134 307.269L90.2063 307.138L96.7452 311.553L100.781 312.707C101.083 312.793 101.332 313.01 101.454 313.304C101.626 313.711 101.517 314.186 101.192 314.481C100.46 315.141 99.0001 316.268 97.4727 316.412C97.066 316.449 96.5283 316.467 95.9228 316.467C93.3967 316.467 89.7138 316.204 89.6867 316.2L89.6822 316.195Z" fill="#2F2E43"/>
<path d="M60.2456 309.106L65.8865 310.235L67.487 302.223L61.8462 301.094L60.2456 309.106Z" fill="#FAAFB2"/>
<path d="M64.3583 314.701C63.3777 314.597 58.4747 314.009 58.4521 312.856C58.434 311.792 58.9718 310.797 59.0486 310.661C60.4359 306.133 60.6167 306.114 60.7296 306.105C60.9059 306.092 61.3397 306.413 62.0175 307.074L62.0582 307.114V307.173C62.0582 307.25 62.0627 309.014 63.7483 309.082C64.9051 309.128 65.3163 308.956 65.4564 308.856C65.3706 308.793 65.2666 308.693 65.2079 308.549C65.122 308.336 65.1491 308.087 65.2892 307.811C65.6552 307.087 66.5093 306.078 66.5455 306.033L66.6404 305.92L72.1851 311.535L75.9177 313.462C76.1978 313.607 76.3967 313.869 76.4599 314.181C76.5458 314.616 76.3515 315.059 75.9719 315.285C75.1223 315.787 73.473 316.611 71.9456 316.448C71.5389 316.403 71.0101 316.312 70.4182 316.194C67.9418 315.697 64.3809 314.72 64.3538 314.711L64.3583 314.701Z" fill="#2F2E43"/>
<path d="M99.583 237.496L72.1849 234.573L59.5771 302.609L68.3483 303.704L83.1433 258.896L82.4112 304.984H91.9099L99.583 237.496Z" fill="#2F2E43"/>
<path d="M98.1189 198.375L83.1433 196.71L68.3484 244.626C68.3484 244.626 75.8362 243.165 80.4048 247.92C84.9734 252.675 100.699 247.273 100.699 247.273L98.1189 198.37V198.375Z" fill="#DFDFE0"/>
<path d="M112.214 248.856C112.62 250.865 111.875 252.702 110.546 252.955C109.218 253.208 107.812 251.788 107.405 249.774C107.229 248.974 107.261 248.141 107.487 247.354L105.874 238.817L110.044 238.156L111.192 246.644C111.712 247.291 112.06 248.051 112.209 248.856H112.214Z" fill="#FAAFB2"/>
<path d="M92.371 197.809L98.119 198.375C100.889 198.963 103.045 201.139 103.614 203.917L111.974 244.622H106.321L92.3665 197.805L92.371 197.809Z" fill="#DFDFE0"/>
<path d="M87.5085 193.195L88.2315 192.864C87.9288 191.498 87.6531 189.96 88.4213 188.792C88.8461 188.15 89.5691 187.643 89.6595 186.879C89.7363 186.245 89.3342 185.598 89.5104 184.983C89.6957 184.336 90.4187 184.037 91.0559 183.82C92.0545 183.486 93.0713 183.146 94.1197 183.119C95.1726 183.096 96.2842 183.436 96.953 184.246C97.1609 184.494 97.3191 184.784 97.4727 185.064C98.0014 186.024 98.9142 187.879 98.9142 187.879C98.9142 187.879 98.8781 187.453 98.8826 186.607C99.1492 185.865 99.5288 185.146 99.5921 184.363C99.6689 183.418 99.2757 182.49 98.7425 181.707C97.5315 179.929 95.4934 178.694 93.3424 178.599C91.1914 178.5 89.2212 178.649 88.1321 180.509C87.9288 180.857 87.7616 181.232 87.504 181.545C87.0295 182.124 86.311 182.431 85.7281 182.897C84.4311 183.938 83.5183 185.852 83.6087 187.517C83.6991 189.182 84.3091 190.765 84.9147 192.317C85.4343 193.656 86.5053 195.018 87.861 195.488C87.7164 194.769 87.5763 194.05 87.4317 193.33" fill="#2F2E43"/>
<path d="M92.1993 198.682L92.1134 198.799L89.5015 202.373L86.4874 206.504L85.8095 207.431L83.3241 210.838C83.3241 210.838 82.5288 211.784 81.2183 212.969L81.1912 212.992C80.7212 213.417 80.188 213.869 79.6006 214.322C76.2792 216.883 71.2812 219.385 66.9431 216.023C61.4345 211.752 73.5181 202.233 79.6683 197.89C81.6883 196.46 84.2641 196.076 86.6139 196.845L92.1993 198.682Z" fill="#DFDFE0"/>
<path d="M92.0591 203.703C91.5033 204.074 90.8752 204.323 90.2154 204.445C90.0663 204.472 89.9172 204.495 89.7635 204.509L86.6365 206.821L85.8095 207.431L82.8812 209.598L80.4456 206.142L84.9419 203.17L87.6894 201.351C88.1006 200.64 88.6745 200.039 89.3704 199.609C90.22 199.061 91.1418 198.79 91.9417 198.79H91.9462C92.0049 198.79 92.0591 198.79 92.1134 198.799C92.859 198.831 93.4871 199.116 93.8351 199.65C94.5807 200.781 93.7808 202.595 92.0591 203.703Z" fill="#FAAFB2"/>
<path d="M87.1742 207.979L84.8786 203.021L74.7065 206.821L79.6005 214.322L87.1742 207.979Z" fill="#DFDFE0"/>
<path d="M92.9675 214.372L91.0199 205.546C90.0664 201.225 92.5111 196.954 96.7092 195.619C123.805 186.983 135.387 172.451 139.878 164.556C154.425 138.99 165.003 110.785 165.107 110.505L165.532 110.663C165.428 110.944 154.84 139.184 140.271 164.782C129.729 183.309 108.54 192.326 96.8448 196.054C92.8726 197.321 90.559 201.361 91.4627 205.451L93.4104 214.277L92.9675 214.372Z" fill="#2F2E43"/>
<path d="M92.0592 203.704C91.5033 204.075 90.8752 204.324 90.2155 204.446C89.7726 203.845 89.515 203.134 89.5015 202.374V202.32C89.5015 200.8 90.4866 199.479 91.9417 198.791H91.9462C91.8603 198.823 92.0275 198.75 91.9462 198.791L92.1134 198.8C92.859 198.832 93.4871 199.117 93.8351 199.651C94.5807 200.782 93.7809 202.596 92.0592 203.704Z" fill="#FAAFB2"/>
<path d="M267.352 181.223C267.352 181.223 261.703 179.852 258.283 188.131C255.431 195.031 253.411 198.718 255.725 201.224C256.552 202.12 257.731 202.604 258.951 202.645L271.975 203.07C271.975 203.07 276.756 190.52 273.85 185.982C270.945 181.444 267.357 181.223 267.357 181.223H267.352Z" fill="#2F2E43"/>
<path d="M270.05 202.035L263.787 204.093V195.067H269.467L270.05 202.035Z" fill="#FAAFB2"/>
<path d="M265.242 311.417H259.376L255.973 280.032H265.043L265.242 311.417Z" fill="#FAAFB2"/>
<path d="M253.664 316.461C253.045 316.461 252.499 316.448 252.083 316.407C250.524 316.262 249.037 315.113 248.291 314.439C247.957 314.136 247.849 313.656 248.025 313.24C248.151 312.941 248.4 312.72 248.712 312.629L252.828 311.453L259.494 306.951L259.566 307.087C259.593 307.137 260.248 308.317 260.47 309.114C260.551 309.417 260.533 309.67 260.407 309.865C260.321 310.001 260.199 310.077 260.099 310.123C260.221 310.249 260.596 310.507 261.762 310.693C263.466 310.964 263.818 309.2 263.836 309.123L263.846 309.064L263.895 309.032C264.704 308.512 265.201 308.272 265.373 308.322C265.481 308.354 265.662 308.408 266.141 313.213C266.191 313.362 266.53 314.47 266.299 315.525C266.046 316.674 261.03 316.28 260.027 316.19C260 316.19 256.24 316.461 253.664 316.461Z" fill="#2F2E43"/>
<path d="M278.496 311.417H272.63L269.228 280.032H278.297L278.496 311.417Z" fill="#FAAFB2"/>
<path d="M266.918 316.461C266.299 316.461 265.752 316.448 265.337 316.407C263.778 316.262 262.291 315.113 261.545 314.439C261.211 314.136 261.102 313.656 261.279 313.24C261.405 312.941 261.654 312.72 261.966 312.629L266.082 311.453L272.748 306.951L272.82 307.087C272.847 307.137 273.502 308.317 273.724 309.114C273.805 309.417 273.787 309.67 273.661 309.865C273.575 310.001 273.453 310.077 273.353 310.123C273.475 310.249 273.85 310.507 275.016 310.693C276.72 310.964 277.072 309.2 277.09 309.123L277.099 309.064L277.149 309.032C277.958 308.512 278.46 308.272 278.627 308.322C278.735 308.354 278.916 308.408 279.395 313.213C279.445 313.362 279.784 314.47 279.553 315.525C279.305 316.674 274.284 316.28 273.281 316.19C273.254 316.19 269.494 316.461 266.918 316.461Z" fill="#2F2E43"/>
<path d="M280.186 234.333H251.68L261.925 200.568H273.29L280.186 234.333Z" fill="#DFDFE0"/>
<path d="M250.903 253.275C250.564 255.343 249.186 256.827 247.826 256.587C246.466 256.347 245.639 254.479 245.978 252.411C246.1 251.583 246.429 250.801 246.931 250.127L248.486 241.386L252.711 242.273L250.731 250.796C250.994 251.602 251.052 252.452 250.903 253.28V253.275Z" fill="#FAAFB2"/>
<path d="M263.719 200.577C263.719 200.577 256.638 200.392 255.892 202.256C255.146 204.12 246.389 248.516 246.389 248.516H252.164L263.714 200.577H263.719Z" fill="#DFDFE0"/>
<path d="M265.224 197.198C268.67 197.198 271.464 194.401 271.464 190.95C271.464 187.499 268.67 184.702 265.224 184.702C261.777 184.702 258.983 187.499 258.983 190.95C258.983 194.401 261.777 197.198 265.224 197.198Z" fill="#FAAFB2"/>
<path d="M266.204 183.286C266.204 183.286 258.192 195.221 259.539 202.663L254.88 199.74C254.88 199.74 258.161 184.67 263.055 183.498L266.209 183.281L266.204 183.286Z" fill="#2F2E43"/>
<path d="M274.262 234.333H255.553L245.318 276.39C245.128 278.168 246.253 279.824 247.98 280.286C253.597 281.792 267.072 283.923 287.466 277.983C289.427 277.413 290.543 275.336 289.924 273.386L274.262 234.333Z" fill="#2F2E43"/>
<path d="M266.697 200.568L272.517 200.311C275.039 200.501 277.316 201.876 278.667 204.011C282.78 210.517 290.471 224.235 283.602 226.112C274.551 228.587 270.163 214.806 270.163 214.806L266.697 200.564V200.568Z" fill="#DFDFE0"/>
<path d="M264.699 204.659C263.502 202.94 263.461 200.913 264.605 200.135C265.748 199.356 267.641 200.121 268.834 201.845C269.322 202.523 269.634 203.315 269.738 204.148L274.709 211.504L271.062 213.816L266.552 206.319C265.802 205.921 265.169 205.351 264.704 204.659H264.699Z" fill="#FAAFB2"/>
<path d="M267.641 210.608L271.749 206.821L279.87 214.39L272.318 219.557L267.641 210.608Z" fill="#DFDFE0"/>
</g>
<defs>
<clipPath id="clip0_179_8632">
<rect width="318" height="317" fill="white"/>
</clipPath>
</defs>
</svg>
