<svg xmlns="http://www.w3.org/2000/svg" viewBox="0 0 1080 1080"><defs><style>.cls-1{fill:#395723;}.cls-2{fill:#fff;}</style></defs><title>Prancheta 2</title><g id="Camada_2" data-name="Camada 2"><circle class="cls-1" cx="540" cy="559" r="429"/><path class="cls-2" d="M537.73,596.88,454.9,436a117.63,117.63,0,0,1,10.19-124l72.64-97.71L610.36,312a117.61,117.61,0,0,1,10.19,124Z"/><path class="cls-2" d="M637,631.6l-94.57,29.49a13.49,13.49,0,0,1-9.37,0L438.48,631.6c-13.43-4.64-13.43-22.29,0-26.93L533,575.18a13.49,13.49,0,0,1,9.37,0L637,604.67C650.4,609.31,650.4,627,637,631.6Z"/><path class="cls-2" d="M522.46,758.15l-4.14-2.41c-13.45-7.84-23.73-22.28-16.44-38.75l35.85-69.68L573.57,717c7.29,16.47-3,30.91-16.43,38.75L553,758.15A30.31,30.31,0,0,1,522.46,758.15Z"/><path class="cls-2" d="M508.49,631.36c5.92-72.82-66-135.76-129.23-142.31-65.21-6.76-111.18,47.52-116.43,54.1C259,548,251.11,557.88,250,572.53a48.92,48.92,0,0,0,3.38,21.64c7.34,19,26.65,34.26,44.22,30.66a28.72,28.72,0,0,0,10.27-4.44,37.11,37.11,0,0,0,5.45-4.11,45.2,45.2,0,0,0,8.45-10.56c4.2-7,3.75-9.53,6.75-15.41,3.47-6.81,7.72-10.65,12.19-14.69a62.51,62.51,0,0,1,24-13.58,79,79,0,0,1,24.63-3.48c34.39.65,91.63,29.53,90.82,78.24-.35,20.91-11.12,35.75-12,36.87-11.08,13.56-28.4,18.7-42.11,15.58a32.71,32.71,0,0,1-4.79-1.57A46.72,46.72,0,0,1,408.37,680c-7.57-6.11-30-11.49-39.94.77-7.66,9.43-5.33,26-1.35,35.56a38.73,38.73,0,0,0,12.86,16.23,36.81,36.81,0,0,0,19.94,7.56s.56.17,1.13.32c2.16.56,22.73,0,36.47-7.88C503.35,694.64,508.49,631.36,508.49,631.36Z"/><path class="cls-2" d="M571.51,631.36c-5.92-72.82,66-135.76,129.23-142.31,65.21-6.76,111.18,47.52,116.43,54.1C821,548,828.89,557.88,830,572.53a48.92,48.92,0,0,1-3.38,21.64c-7.34,19-26.65,34.26-44.22,30.66a28.72,28.72,0,0,1-10.27-4.44,37.11,37.11,0,0,1-5.45-4.11,45.2,45.2,0,0,1-8.45-10.56c-4.2-7-3.75-9.53-6.75-15.41-3.47-6.81-7.72-10.65-12.19-14.69a62.51,62.51,0,0,0-24-13.58,79,79,0,0,0-24.63-3.48c-34.39.65-91.63,29.53-90.82,78.24.35,20.91,11.12,35.75,12,36.87,11.08,13.56,28.4,18.7,42.11,15.58a32.71,32.71,0,0,0,4.79-1.57A46.72,46.72,0,0,0,671.63,680c7.57-6.11,30-11.49,39.94.77,7.66,9.43,5.33,26,1.35,35.56a38.73,38.73,0,0,1-12.86,16.23,36.81,36.81,0,0,1-19.94,7.56s-.56.17-1.13.32c-2.16.56-22.73,0-36.47-7.88C576.65,694.64,571.51,631.36,571.51,631.36Z"/><polygon class="cls-2" points="264.12 265.47 268.02 277.47 280.64 277.47 270.43 284.89 274.33 296.9 264.12 289.48 253.91 296.9 257.81 284.89 247.59 277.47 260.22 277.47 264.12 265.47"/><polygon class="cls-2" points="308 234.41 311.9 246.42 324.53 246.42 314.32 253.84 318.22 265.84 308 258.42 297.79 265.84 301.69 253.84 291.48 246.42 304.1 246.42 308 234.41"/><polygon class="cls-2" points="362.17 260.34 366.07 272.35 378.69 272.35 368.48 279.77 372.38 291.77 362.17 284.35 351.95 291.77 355.86 279.77 345.64 272.35 358.27 272.35 362.17 260.34"/><polygon class="cls-2" points="334.5 303.13 337.45 312.21 346.99 312.21 339.27 317.82 342.22 326.9 334.5 321.29 326.78 326.9 329.73 317.82 322 312.21 331.55 312.21 334.5 303.13"/><polygon class="cls-2" points="311.72 337.01 316.89 352.93 333.63 352.93 320.09 362.77 325.26 378.69 311.72 368.85 298.18 378.69 303.35 362.77 289.81 352.93 306.55 352.93 311.72 337.01"/><path class="cls-2" d="M856.15,766.47c-16.79-.8-45.36-2.22-51.23-2.94l-13-27.08L790.25,733l-73,39.8,3.17,5.44a430,430,0,0,1-359.71-.36l2.79-4.74-72.88-40.1-1.39,2.86-13.4,27.58c-5.77.68-33.47,2-50.37,2.69-7.78.34-13.27.56-13.27.56,28.48,29.31,104.73,85.5,104.73,85.5l4.7-8a429.46,429.46,0,0,0,437.66.61l4.22,7.23s76.48-55.87,105.08-85.05Z"/><path class="cls-1" d="M356.31,820.52c2.53,1,3.8,1.53,6.34,2.51a7.1,7.1,0,0,0,.28,5.14,8,8,0,0,0,4,3.48,8.33,8.33,0,0,0,5.19,1,3.64,3.64,0,0,0,2.79-2,2.67,2.67,0,0,0,.11-2,6,6,0,0,0-1.72-2.25c-.63-.56-2.12-1.74-4.45-3.55-3-2.33-4.86-4.4-5.65-6.15a7.68,7.68,0,0,1,3.29-10.28,9.11,9.11,0,0,1,5.08-1,17.94,17.94,0,0,1,6.28,1.81c3.71,1.73,6.17,3.76,7.39,6.16a8.91,8.91,0,0,1,.31,7.58c-2.51-1-3.77-1.45-6.28-2.46a5.24,5.24,0,0,0-.27-3.89,7.19,7.19,0,0,0-3.41-2.73,8.26,8.26,0,0,0-4.6-1,2.24,2.24,0,0,0-1.8,1.27,2.3,2.3,0,0,0,.08,2.13c.48,1,2.06,2.5,4.75,4.54a38.37,38.37,0,0,1,5.78,5.06,9.43,9.43,0,0,1,2.18,4.39,8.6,8.6,0,0,1-.69,5.08,8.3,8.3,0,0,1-3.48,3.93,9.51,9.51,0,0,1-5.72,1.27,21.26,21.26,0,0,1-7.46-2.15c-4.05-1.89-6.75-4.22-8.08-6.91A11.15,11.15,0,0,1,356.31,820.52Z"/><path class="cls-1" d="M382.17,843.52,394,814.86c8.92,3.68,13.42,5.37,22.51,8.48l-1.7,5c-6.7-2.29-10-3.51-16.64-6.11-1,2.56-1.51,3.84-2.51,6.4,6.26,2.46,9.41,3.62,15.74,5.81l-1.7,4.93c-6.42-2.21-9.61-3.39-15.95-5.88-1.24,3.14-1.85,4.71-3.09,7.85,7.21,2.84,10.84,4.16,18.14,6.64-.68,2-1,3-1.68,4.95C397,849.47,392.05,847.6,382.17,843.52Z"/><path class="cls-1" d="M411.58,854.38q4.82-14.73,9.64-29.46c3.71,1.21,5.58,1.8,9.31,2.92-.18,8.77-.21,13.17-.15,22,4.66-7.47,6.92-11.24,11.34-18.81,3.77,1,5.66,1.48,9.44,2.39q-3.62,15.08-7.24,30.15c-2.54-.61-3.8-.93-6.33-1.58l6.08-23.63c-4.95,8.8-7.5,13.18-12.75,21.86-2.61-.72-3.91-1.08-6.51-1.84.09-10.15.22-15.21.63-25.3-2.89,9.32-4.34,14-7.23,23.31C415.31,855.59,414.07,855.2,411.58,854.38Z"/><path class="cls-1" d="M449.56,864.86q3.42-15.12,6.83-30.24c4.06.92,6.1,1.35,10.18,2.16a43.76,43.76,0,0,1,7.48,1.87,8.73,8.73,0,0,1,4.06,3.78,10.74,10.74,0,0,1-1,10.82,8.52,8.52,0,0,1-3.29,2.55,9.87,9.87,0,0,1-3.72.85,37.4,37.4,0,0,1-7-.87c-1.74-.34-2.61-.52-4.35-.88-1,4.58-1.43,6.87-2.39,11.45C453.66,865.78,452.29,865.48,449.56,864.86Zm12.1-23.73-1.8,8.61,3.6.74a17.76,17.76,0,0,0,5.3.52,4.33,4.33,0,0,0,2.33-1.12,4.24,4.24,0,0,0,.63-5.18,4.77,4.77,0,0,0-2.36-1.83,36.06,36.06,0,0,0-4.59-1.1Z"/><path class="cls-1" d="M480.16,870.59l4.56-30.67c5.39.8,8.08,1.16,13.49,1.77a25.86,25.86,0,0,1,7.33,1.59,7.56,7.56,0,0,1,3.46,3.3,8.64,8.64,0,0,1,1,5,7.85,7.85,0,0,1-2.65,5.56,10.54,10.54,0,0,1-6.82,2.24,16.12,16.12,0,0,1,3.35,2.94,38.16,38.16,0,0,1,3.43,5.36c1.45,2.55,2.19,3.82,3.7,6.36-3.33-.25-5-.39-8.31-.7-1.76-2.87-2.62-4.32-4.31-7.21a47.28,47.28,0,0,0-3.07-4.92,5.26,5.26,0,0,0-1.87-1.52,12.39,12.39,0,0,0-3.34-.77l-1.36-.17c-.68,5.13-1,7.69-1.69,12.83C484.3,871.19,482.92,871,480.16,870.59Zm9.25-16.77c2,.26,2.94.38,4.9.61a25.27,25.27,0,0,0,6,.29,3.52,3.52,0,0,0,2-1.11,3.88,3.88,0,0,0,.9-2.25,3.6,3.6,0,0,0-.63-2.6,4.05,4.05,0,0,0-2.33-1.47c-.51-.13-2.1-.32-4.73-.64-2-.24-3.05-.36-5.07-.63C490,849.14,489.82,850.7,489.41,853.82Z"/><path class="cls-1" d="M513.62,874.2q1.05-15.47,2.09-30.93c9.46.63,14.19.81,23.67.87,0,2.1,0,3.15,0,5.24-7,0-10.48-.14-17.46-.49l-.35,6.86c6.61.33,9.92.43,16.53.5l0,5.22c-6.7-.06-10-.16-16.74-.5-.17,3.37-.26,5-.43,8.42,7.6.39,11.41.5,19,.53,0,2.09,0,3.14,0,5.22C529.34,875.1,524.1,874.91,513.62,874.2Z"/><path class="cls-1" d="M586.07,872.81c-3,.32-4.52.46-7.55.73-1.44-2.7-2.16-4-3.56-6.77-5.41.44-8.12.61-13.54.87-1,2.87-1.49,4.3-2.51,7.16-2.95.12-4.43.17-7.39.24,4.12-10.45,8-20.89,11.72-31.48,2.72-.16,4.09-.24,6.81-.44C575.21,853.15,580.52,863,586.07,872.81Zm-13.7-11.07c-2.19-4.45-3.26-6.69-5.34-11.17-1.46,4.71-2.22,7.06-3.78,11.75C566.9,862.13,568.72,862,572.37,861.74Z"/><path class="cls-1" d="M588.79,872.51,585.34,842c2.57-.29,3.85-.44,6.42-.77,1.31,10.12,2,15.18,3.28,25.31,6.8-.88,10.19-1.39,17-2.56.35,2.06.53,3.09.88,5.15C603.28,870.73,598.45,871.42,588.79,872.51Z"/><path class="cls-1" d="M616.64,868.41q-2.76-15.24-5.54-30.5c9.36-1.7,14-2.69,23.28-5l1.25,5.09c-6.83,1.68-10.26,2.44-17.14,3.81.53,2.7.8,4,1.34,6.74,6.52-1.29,9.76-2,16.24-3.58.49,2,.73,3,1.23,5.08-6.56,1.59-9.85,2.32-16.45,3.63.66,3.31,1,5,1.64,8.27,7.5-1.49,11.24-2.32,18.68-4.16.5,2,.76,3,1.26,5.07C632.17,865.43,627,866.53,616.64,868.41Z"/><path class="cls-1" d="M647.09,861.71l-7.8-30c5.3-1.38,7.94-2.11,13.19-3.68a26.49,26.49,0,0,1,7.44-1.42,7.63,7.63,0,0,1,4.52,1.66,8.74,8.74,0,0,1,2.9,4.19,7.85,7.85,0,0,1-.29,6.16,10.75,10.75,0,0,1-5.46,4.75,16.86,16.86,0,0,1,4.27,1.38,40.17,40.17,0,0,1,5.29,3.58c2.35,1.77,3.54,2.65,5.94,4.38-3.2,1.1-4.8,1.62-8,2.65-2.76-2-4.13-2.94-6.83-4.94a49.48,49.48,0,0,0-4.79-3.31,5.29,5.29,0,0,0-2.33-.66,12.36,12.36,0,0,0-3.4.6l-1.33.38c1.39,5,2.08,7.48,3.47,12.47C651.16,860.64,649.8,861,647.09,861.71Zm2-19.06c1.92-.54,2.88-.81,4.79-1.37a25.31,25.31,0,0,0,5.68-2.1,3.52,3.52,0,0,0,1.42-1.81,3.87,3.87,0,0,0-.05-2.42,3.59,3.59,0,0,0-1.61-2.14,4.11,4.11,0,0,0-2.74-.43c-.52.08-2.08.53-4.64,1.28-2,.57-3,.86-4.95,1.41Z"/><path class="cls-1" d="M687,849.18c-3.58-9.66-5.36-14.5-8.93-24.16-3.66,1.35-5.5,2-9.18,3.26l-1.7-5c9.74-3.32,14.56-5.15,24.11-9.14l2,4.83c-3.6,1.51-5.41,2.24-9.05,3.66,3.74,9.6,5.61,14.4,9.34,24C691,847.7,689.65,848.2,687,849.18Z"/><path class="cls-1" d="M731.92,829.51c-2.78,1.42-4.17,2.11-7,3.47-2.34-2-3.51-3-5.81-5-5,2.39-7.54,3.54-12.62,5.76.08,3,.11,4.56.16,7.6-2.78,1.19-4.17,1.77-6.95,2.91.21-11.27.2-22.43,0-33.69,2.54-1.14,3.81-1.72,6.34-2.9C714.55,815.14,723.11,822.38,731.92,829.51Zm-17-5.31c-3.67-3.36-5.48-5.05-9.06-8.48.27,4.94.38,7.41.56,12.37C709.79,826.57,711.49,825.8,714.88,824.2Z"/></g></svg>