<svg xmlns="http://www.w3.org/2000/svg" viewBox="0 0 1080 1080"><defs><style>.cls-1{fill:#ff0;}.cls-2{fill:#342f61;}.cls-3{fill:#342f60;}</style></defs><title>Prancheta 3</title><g id="Camada_3" data-name="Camada 3"><circle class="cls-1" cx="540" cy="535.75" r="429"/><polygon class="cls-2" points="260.91 265.47 264.81 277.47 277.44 277.47 267.22 284.89 271.12 296.9 260.91 289.48 250.7 296.9 254.6 284.89 244.39 277.47 257.01 277.47 260.91 265.47"/><polygon class="cls-2" points="304.8 234.41 308.7 246.42 321.32 246.42 311.11 253.84 315.01 265.84 304.8 258.42 294.58 265.84 298.48 253.84 288.27 246.42 300.89 246.42 304.8 234.41"/><polygon class="cls-2" points="358.96 260.34 362.86 272.35 375.48 272.35 365.27 279.77 369.17 291.77 358.96 284.35 348.75 291.77 352.65 279.77 342.44 272.35 355.06 272.35 358.96 260.34"/><polygon class="cls-2" points="331.29 303.13 334.24 312.21 343.79 312.21 336.06 317.82 339.01 326.9 331.29 321.29 323.57 326.9 326.52 317.82 318.8 312.21 328.34 312.21 331.29 303.13"/><polygon class="cls-2" points="308.51 337.01 313.68 352.93 330.42 352.93 316.88 362.77 322.05 378.69 308.51 368.85 294.97 378.69 300.14 362.77 286.6 352.93 303.34 352.93 308.51 337.01"/><path class="cls-2" d="M857.94,766.47c-16.79-.8-45.36-2.22-51.23-2.94l-13-27.08L792,733l-73,39.8,3.17,5.44a430,430,0,0,1-359.71-.36l2.79-4.74-72.87-40.1-1.4,2.86-13.4,27.58c-5.77.68-33.47,2-50.37,2.69-7.78.34-13.27.56-13.27.56,28.48,29.31,104.73,85.5,104.73,85.5l4.7-8a429.46,429.46,0,0,0,437.66.61l4.22,7.23s76.48-55.87,105.08-85.05Z"/><path class="cls-2" d="M434.7,278.25S359.1,333.83,394.2,419c0,0-59.4,50.64-76.5,102.51l25.2-2.47S339.3,625.29,362.7,650l21.6-24.7s23.4,117.32,155.7,168V356.06a125.26,125.26,0,0,0-36,6.17S460.8,290.6,434.7,278.25Z"/><path class="cls-2" d="M762.3,521.55C745.2,469.68,685.8,419,685.8,419c35.1-85.21-40.5-140.79-40.5-140.79-26.1,12.35-69.3,84-69.3,84a125.26,125.26,0,0,0-36-6.17V793.25c132.3-50.64,155.7-168,155.7-168L717.3,650c23.4-24.7,19.8-130.91,19.8-130.91Z"/><path class="cls-1" d="M482.4,472.15l1.8,18.52H435.6s-10.8,38.29,24.3,63c0,0,27,117.32,35.1,128.44s45,14.82,45,14.82V545S518.4,498.08,482.4,472.15Z"/><path class="cls-1" d="M644.4,490.67H595.8l1.8-18.52C561.6,498.08,540,545,540,545V696.92s36.9-3.71,45-14.82,35.1-128.44,35.1-128.44C655.2,529,644.4,490.67,644.4,490.67Z"/><path class="cls-2" d="M505.8,545s-4.5-18.52-15.3-27.17l-29.7-4.94a47,47,0,0,0,13.5,22.23S486,542.54,505.8,545Z"/><path class="cls-3" d="M540,637.64a130.58,130.58,0,0,0-40.53,4.94s-2.7,12.35,3.6,18.52c0,0,2.7,0,7.2-4.94,0,0,9,6.18,11.7,14.82,0,0,1.8,3.71-7.2,2.47,0,0,11.44,11.3,25.2,12.35Z"/><path class="cls-1" d="M540,725.32S508.5,713,491.4,700.62a81.84,81.84,0,0,1-13.5-28.4c-4.5-17.29-17.1-72.87-17.1-72.87s-3.6-17.29-10.8-24.7-18.9-28.4-18.9-28.4-22.5,1.23-40.5-9.88c0,0-7.2,58,35.1,69.16,0,0,13.5,63,30.6,84l4.5-35.82s14.4,38.29,31.5,65.46,44.1,45.69,47.7,45.69Z"/><path class="cls-1" d="M428.4,304.19l55.91,58.73c.34.36.06,1.09-.35.92l-33.06-14,7.92,23.9c.24.75-.43,1.43-.88.89L435.6,347.41s-2.7,23.47,2.7,38.29c0,0-1.8,3.7-5.4,0l-11.7-27.17-13.5,50.63s-4.5,1.24-4.5-7.41C403.2,401.75,402.3,315.3,428.4,304.19Z"/><path class="cls-2" d="M574.2,545s4.5-18.52,15.3-27.17l29.7-4.94a47,47,0,0,1-13.5,22.23S594,542.54,574.2,545Z"/><path class="cls-3" d="M540,637.64a130.58,130.58,0,0,1,40.53,4.94s2.7,12.35-3.6,18.52c0,0-2.7,0-7.2-4.94,0,0-9,6.18-11.7,14.82,0,0-1.8,3.71,7.2,2.47,0,0-11.44,11.3-25.2,12.35Z"/><path class="cls-1" d="M540,725.32S571.5,713,588.6,700.62a81.84,81.84,0,0,0,13.5-28.4c4.5-17.29,17.1-72.87,17.1-72.87s3.6-17.29,10.8-24.7,18.9-28.4,18.9-28.4,22.5,1.23,40.5-9.88c0,0,7.2,58-35.1,69.16,0,0-13.5,63-30.6,84l-4.5-35.82S604.8,692,587.7,719.15s-44.1,45.69-47.7,45.69Z"/><path class="cls-1" d="M651.6,304.19l-55.91,58.73c-.34.36-.06,1.09.35.92l33.06-14-7.92,23.9c-.24.75.43,1.43.88.89l22.34-27.26s2.7,23.47-2.7,38.29c0,0,1.8,3.7,5.4,0l11.7-27.17,13.5,50.63s4.5,1.24,4.5-7.41C676.8,401.75,677.7,315.3,651.6,304.19Z"/><path class="cls-1" d="M344.05,828.7l13-25.51q4.15,2.12,8.34,4.13-1.71,10-3.16,20.11Q369,819.78,375.45,812q4.24,1.89,8.52,3.68-5.52,13.22-11.05,26.42-2.84-1.19-5.66-2.42l9-20.66q-7.33,9.09-15,18c-1.94-.89-3.88-1.78-5.81-2.7q1.86-11.58,4-23.06-5,10.11-9.94,20.23Q346.82,830.12,344.05,828.7Z"/><path class="cls-1" d="M376.88,843.71l10.79-26.52q10.5,4.27,21.17,7.91l-1.56,4.59Q399.42,827,391.65,824q-1.15,3-2.3,5.92,7.33,2.85,14.77,5.41-.8,2.28-1.57,4.56-7.51-2.58-14.95-5.47l-2.82,7.26q8.43,3.27,17,6.17-.76,2.29-1.55,4.57Q388.44,848.41,376.88,843.71Z"/><path class="cls-1" d="M403.49,853.51l8.91-27c1.94.65,3.89,1.27,5.84,1.89l-7.05,22.49q7.71,2.42,15.48,4.53l-1.26,4.66Q414.39,857.11,403.49,853.51Z"/><path class="cls-1" d="M427.75,860.74l7.35-27.68q3,.78,5.92,1.52l-2.73,10.94q6,1.49,12,2.79l2.4-11q3,.65,6,1.24-2.82,14-5.65,28.08-3.2-.64-6.39-1.34,1.32-6.12,2.66-12.24-6.08-1.32-12.12-2.82-1.51,6.07-3,12.15Q430.92,861.58,427.75,860.74Z"/><path class="cls-1" d="M458.77,853.35a17.16,17.16,0,0,1,2.77-7,14.14,14.14,0,0,1,3.51-3.34,12.28,12.28,0,0,1,4.31-1.86,18.11,18.11,0,0,1,6.59-.06c4.37.68,7.69,2.44,10,5.38s3.27,6.71,2.72,11.34-2.33,8-5.45,10.26-7.06,3-11.75,2.29-8.32-2.69-10.61-5.75S457.9,857.82,458.77,853.35Zm6.42,1q-.85,4.78,1.17,7.68a8.42,8.42,0,0,0,5.86,3.5,8.32,8.32,0,0,0,6.61-1.54q2.78-2.13,3.42-7.07c.44-3.25,0-5.78-1.31-7.59a9.09,9.09,0,0,0-12.15-1.86C467,848.81,465.77,851.09,465.19,854.34Z"/><path class="cls-1" d="M489.85,872.36q1.59-14.24,3.16-28.46,6.36.71,12.72,1.2a24.28,24.28,0,0,1,6.93,1.26A7,7,0,0,1,516,849.3a8,8,0,0,1,1.1,4.57,7.28,7.28,0,0,1-2.31,5.21,10.06,10.06,0,0,1-6.31,2.27,15.35,15.35,0,0,1,3.22,2.61,35.22,35.22,0,0,1,3.37,4.85q1.8,2.88,3.64,5.76-3.88-.17-7.76-.4c-1.44-2.17-2.86-4.34-4.25-6.53a46.29,46.29,0,0,0-3-4.45,5.16,5.16,0,0,0-1.8-1.34,11.61,11.61,0,0,0-3.15-.6l-1.27-.12L496.33,873Q493.09,872.72,489.85,872.36Zm8-15.78,4.61.41a24.18,24.18,0,0,0,5.62.08A3.29,3.29,0,0,0,510,856a3.51,3.51,0,0,0,.77-2.1,3.31,3.31,0,0,0-.67-2.38,3.89,3.89,0,0,0-2.23-1.28c-.5-.11-2-.24-4.47-.45l-4.77-.42Z"/><path class="cls-1" d="M530.24,874.9l.44-28.63q4.86.08,9.72,0a41.26,41.26,0,0,1,7.22.29,8.12,8.12,0,0,1,4.44,2.66,9.84,9.84,0,0,1,1.14,10,7.94,7.94,0,0,1-2.53,2.92,9.37,9.37,0,0,1-3.24,1.46,36.28,36.28,0,0,1-6.56.53l-4.13,0V875Q533.5,875,530.24,874.9Zm6.5-23.74v8.12h3.43a16.93,16.93,0,0,0,4.94-.52A4,4,0,0,0,547,857.3a3.63,3.63,0,0,0,.65-2.25,3.58,3.58,0,0,0-1-2.55,4.45,4.45,0,0,0-2.5-1.22,35.26,35.26,0,0,0-4.42-.13Z"/><path class="cls-1" d="M556,860.35a17.58,17.58,0,0,1,1-7.4,14.28,14.28,0,0,1,2.62-4.08,12.11,12.11,0,0,1,3.73-2.81,17.9,17.9,0,0,1,6.38-1.62c4.4-.37,8,.56,11,2.87s4.75,5.74,5.31,10.37-.37,8.35-2.87,11.26-6.15,4.6-10.87,5-8.69-.65-11.64-3.09S556.22,864.9,556,860.35Zm6.46-.55c.2,3.24,1.17,5.64,2.94,7.19A9.07,9.07,0,0,0,578,866c1.46-1.82,2-4.38,1.65-7.68s-1.37-5.62-3.06-7.07a9.07,9.07,0,0,0-12.22,1.06C562.89,854,562.26,856.51,562.46,859.8Z"/><path class="cls-1" d="M587.83,862.47q3-.66,6.08-1.36a6.52,6.52,0,0,0,2.84,3.8,7.37,7.37,0,0,0,4.81.62,7.62,7.62,0,0,0,4.44-1.92,3.37,3.37,0,0,0,1.09-3,2.51,2.51,0,0,0-.94-1.6,5.47,5.47,0,0,0-2.46-.84c-.77-.11-2.51-.25-5.21-.45-3.46-.25-5.94-.86-7.44-1.79a7.14,7.14,0,0,1-3.56-5.35,7,7,0,0,1,.79-4.22,8.18,8.18,0,0,1,3.35-3.38,16.39,16.39,0,0,1,5.71-1.86c3.73-.57,6.66-.28,8.83.93a8.26,8.26,0,0,1,4.12,5.67q-3,.69-6.07,1.33a4.87,4.87,0,0,0-2.2-2.85,6.7,6.7,0,0,0-4-.34,7.51,7.51,0,0,0-4,1.65,2,2,0,0,0-.72,1.9,2.13,2.13,0,0,0,1.16,1.59c.86.49,2.84.85,5.94,1a34.69,34.69,0,0,1,7,.92,8.75,8.75,0,0,1,3.91,2.25,8,8,0,0,1,2.07,4.26,7.8,7.8,0,0,1-.65,4.81,8.87,8.87,0,0,1-3.72,3.9,19.54,19.54,0,0,1-6.76,2.18c-4,.63-7.27.23-9.65-1.14A10.37,10.37,0,0,1,587.83,862.47Z"/><path class="cls-1" d="M614.72,858.23q3-.86,6-1.75a6.58,6.58,0,0,0,3.1,3.6,7.34,7.34,0,0,0,4.85.3,7.69,7.69,0,0,0,4.32-2.21,3.36,3.36,0,0,0,.89-3,2.41,2.41,0,0,0-1-1.53,5.41,5.41,0,0,0-2.52-.68c-.78-.06-2.53-.08-5.24-.1-3.48,0-6-.47-7.56-1.3a7.14,7.14,0,0,1-3.4-9.37,8.29,8.29,0,0,1,3.13-3.59,16.55,16.55,0,0,1,5.6-2.23c3.69-.82,6.64-.73,8.89.34a8.22,8.22,0,0,1,4.5,5.38q-3,.88-6,1.74a4.87,4.87,0,0,0-2.39-2.7,6.64,6.64,0,0,0-4-.07,7.56,7.56,0,0,0-3.89,1.9,2.07,2.07,0,0,0-.6,2,2.16,2.16,0,0,0,1.27,1.51c.89.43,2.89.66,6,.63a35.07,35.07,0,0,1,7.08.46,8.8,8.8,0,0,1,4.06,2,8,8,0,0,1,2.35,4.11,7.71,7.71,0,0,1-.34,4.84,8.88,8.88,0,0,1-3.47,4.15,19.53,19.53,0,0,1-6.62,2.62c-4,.89-7.26.71-9.73-.5A10.34,10.34,0,0,1,614.72,858.23Z"/><path class="cls-1" d="M636.7,831.77c.42-2.12.82-4.25,1.21-6.37q3.09-.82,6.15-1.71-1.86,3.57-3.83,7.13C639.05,831.15,637.87,831.46,636.7,831.77Zm8.41,29.09-7.32-27.68q3-.78,5.9-1.61l7.74,27.57Q648.28,860,645.11,860.86Z"/><path class="cls-1" d="M663.21,855.64q-9.83-11.92-18.93-24.24,3.19-.9,6.37-1.85,6.72,9,13.83,17.88.48-11.28.57-22.52c2.05-.7,4.1-1.43,6.15-2.17q-.27,15.33-1.31,30.75Q666.56,854.6,663.21,855.64Z"/><path class="cls-1" d="M682,849.3l-9.81-26.9q10.62-3.87,21.05-8.36l1.92,4.45q-7.68,3.3-15.47,6.28l2.27,5.93q7.35-2.81,14.62-5.92,1,2.22,1.9,4.44-7.35,3.13-14.8,6c.93,2.42,1.85,4.85,2.78,7.28q8.45-3.22,16.77-6.83l1.92,4.42Q693.63,845,682,849.3Z"/><path class="cls-1" d="M708.31,838.68q-5.74-13-11.48-26c1.88-.84,3.77-1.69,5.65-2.56l9.87,21.41q7.42-3.42,14.75-7.15l2.19,4.29Q718.91,834,708.31,838.68Z"/></g></svg>