<?xml version="1.0" standalone="no"?>
<!DOCTYPE svg PUBLIC "-//W3C//DTD SVG 20010904//EN"
 "http://www.w3.org/TR/2001/REC-SVG-20010904/DTD/svg10.dtd">
<svg version="1.0" xmlns="http://www.w3.org/2000/svg"
 width="232.000000pt" height="300.000000pt" viewBox="0 0 232.000000 300.000000"
 preserveAspectRatio="xMidYMid meet">

<g transform="translate(0.000000,300.000000) scale(0.100000,-0.100000)"
fill="#000000" stroke="none">
<path d="M1015 2900 c-373 -39 -654 -163 -802 -353 -62 -81 -93 -158 -100
-252 -25 -328 307 -952 720 -1352 113 -110 197 -170 286 -204 49 -19 62 -20
111 -10 260 52 627 421 829 834 198 405 212 760 39 984 -116 151 -397 286
-693 333 -150 24 -287 31 -390 20z m-368 -280 c13 0 13 -3 3 -15 -7 -8 -10
-22 -6 -30 4 -13 2 -14 -14 -5 -12 7 -21 7 -25 0 -10 -16 -25 -12 -19 5 4 8 1
22 -6 30 -10 12 -9 15 4 15 9 0 19 7 23 16 5 15 7 15 15 0 5 -9 16 -16 25 -16z
m631 -136 c59 -77 115 -185 134 -256 18 -70 1 -145 -72 -333 -85 -218 -95
-253 -73 -277 25 -28 39 -22 58 30 55 147 119 232 210 280 46 25 60 27 165 27
108 0 118 -2 163 -28 55 -33 82 -71 91 -131 14 -90 -50 -231 -105 -231 -16 0
-30 11 -46 35 -45 71 -68 93 -121 118 -43 19 -65 23 -113 20 -66 -5 -102 -28
-173 -112 -38 -46 -40 -49 -22 -60 10 -6 31 -21 45 -33 l26 -22 -47 -48 c-44
-45 -46 -49 -33 -73 18 -34 54 -52 95 -48 30 3 37 10 64 62 20 38 43 67 64 79
31 18 34 18 58 2 24 -16 26 -21 22 -71 -6 -67 -29 -101 -88 -131 -54 -28 -136
-30 -187 -6 -30 14 -83 78 -96 116 -4 14 -67 -2 -67 -17 0 -6 16 -36 35 -66
20 -33 35 -68 35 -87 0 -64 -90 -96 -151 -52 -39 27 -37 55 9 138 20 38 34 72
31 75 -3 3 -19 9 -36 12 -26 5 -32 2 -38 -16 -9 -30 -62 -88 -96 -106 -76 -39
-205 -2 -247 71 -32 57 -27 125 10 143 43 20 73 -1 111 -77 l32 -66 47 1 c49
0 82 20 93 56 5 13 -6 30 -42 62 -42 39 -46 45 -34 60 8 10 27 24 43 32 l28
15 -20 38 c-26 51 -94 109 -144 122 -100 27 -203 -15 -261 -106 -19 -29 -42
-55 -52 -59 -25 -10 -64 22 -91 74 -39 78 -26 217 25 261 50 45 85 54 203 53
137 0 179 -15 254 -90 46 -47 116 -173 131 -236 8 -32 26 -36 50 -12 20 20 17
33 -32 164 -68 182 -123 354 -123 387 0 48 36 148 78 218 52 88 122 177 135
172 6 -2 35 -35 65 -73z m-450 25 c10 0 12 -3 5 -6 -7 -2 -13 -13 -13 -22 0
-13 -8 -18 -29 -18 -19 0 -27 5 -24 13 2 6 -1 15 -7 19 -6 4 -2 13 12 25 19
15 24 16 31 4 4 -8 16 -14 25 -15z m-345 -27 c12 -6 16 -11 10 -11 -7 -1 -13
-9 -13 -18 0 -13 -8 -18 -29 -19 -20 -1 -28 3 -24 11 2 7 0 16 -6 20 -6 3 -11
11 -11 16 0 6 4 7 10 4 5 -3 15 4 22 15 9 15 14 17 16 7 2 -8 13 -19 25 -25z
m235 -105 c2 -11 -3 -17 -16 -17 -23 0 -37 26 -19 34 19 7 32 1 35 -17z m-88
-103 c0 -9 10 -14 27 -14 25 0 25 -1 9 -19 -11 -13 -15 -27 -11 -40 7 -24 2
-26 -25 -9 -15 10 -22 10 -32 0 -19 -19 -30 -14 -23 9 4 13 0 27 -11 40 -16
18 -16 19 8 19 18 0 27 7 31 21 6 23 27 17 27 -7z"/>
<path d="M187 622 c-10 -10 -17 -28 -17 -40 0 -28 34 -62 60 -62 25 0 37 -27
21 -43 -9 -9 -16 -8 -32 1 -22 14 -39 8 -39 -13 0 -29 78 -35 103 -7 34 37 20
74 -36 97 -37 15 -49 39 -24 48 6 2 20 0 31 -5 25 -13 44 5 26 27 -17 21 -73
19 -93 -3z"/>
<path d="M337 633 c-4 -3 -7 -48 -7 -100 l0 -93 66 0 c57 0 65 2 62 18 -2 12
-15 18 -46 20 -34 3 -42 7 -42 23 0 15 7 19 35 19 28 0 35 4 35 20 0 16 -7 20
-35 20 -28 0 -35 4 -35 19 0 16 8 20 42 23 31 2 44 8 46 21 3 15 -5 17 -56 17
-32 0 -62 -3 -65 -7z"/>
<path d="M494 627 c-3 -8 -4 -52 -2 -98 2 -67 6 -84 18 -84 10 0 17 14 20 45
l5 45 19 -43 c24 -52 42 -52 73 3 l23 40 0 -48 c0 -41 3 -48 18 -45 15 3 17
16 17 98 0 115 -15 125 -60 38 -16 -32 -33 -58 -37 -58 -4 0 -21 27 -38 60
-30 59 -46 73 -56 47z"/>
<path d="M714 627 c-3 -8 -4 -51 -2 -98 2 -69 6 -84 20 -87 12 -2 17 5 20 25
2 23 9 29 33 31 41 5 65 29 65 67 0 45 -35 75 -88 75 -26 0 -45 -5 -48 -13z
m94 -59 c2 -19 -2 -28 -17 -33 -29 -9 -41 1 -41 36 0 27 3 30 28 27 21 -2 28
-9 30 -30z"/>
<path d="M877 633 c-4 -3 -7 -49 -7 -100 0 -85 2 -94 18 -91 11 2 18 14 20 36
2 17 6 32 10 32 4 0 21 -17 39 -37 24 -29 34 -35 43 -27 9 9 8 18 -5 38 -16
25 -16 28 -1 45 22 24 20 67 -4 91 -20 20 -98 29 -113 13z m88 -63 c0 -20 -6
-26 -27 -28 -25 -3 -28 0 -28 28 0 28 3 31 28 28 21 -2 27 -8 27 -28z"/>
<path d="M1047 633 c-4 -3 -7 -48 -7 -100 l0 -93 66 0 c57 0 65 2 62 18 -2 12
-15 18 -46 20 -34 3 -42 7 -42 23 0 15 7 19 35 19 28 0 35 4 35 20 0 16 -7 20
-35 20 -28 0 -35 4 -35 19 0 16 8 20 42 23 31 2 44 8 46 21 3 15 -5 17 -56 17
-32 0 -62 -3 -65 -7z"/>
<path d="M1296 565 c-19 -41 -37 -83 -41 -94 -8 -26 15 -39 30 -18 16 23 103
24 111 2 8 -21 34 -19 34 3 0 29 -72 182 -86 182 -7 0 -29 -34 -48 -75z m74
-47 c0 -5 -11 -8 -25 -8 -27 0 -31 10 -14 42 11 21 12 21 25 -3 7 -13 13 -27
14 -31z"/>
<path d="M1460 540 l0 -100 53 0 c30 0 57 3 60 7 13 13 -16 33 -49 33 l-34 0
0 80 c0 64 -3 80 -15 80 -12 0 -15 -18 -15 -100z"/>
<path d="M1605 618 c-3 -13 -5 -57 -3 -98 l3 -75 54 -3 c29 -2 60 -1 68 3 28
10 -6 35 -48 35 -32 0 -39 4 -39 19 0 16 8 20 38 23 25 2 37 8 37 18 0 10 -12
16 -37 18 -29 3 -38 7 -38 22 0 15 9 19 48 22 34 2 47 7 47 18 0 11 -15 16
-62 18 -58 3 -63 1 -68 -20z"/>
<path d="M1766 618 c-8 -30 -8 -142 0 -162 11 -28 34 -18 34 13 0 44 15 46 47
6 15 -19 34 -35 41 -35 17 0 15 35 -3 50 -13 11 -12 15 5 37 45 58 11 113 -69
113 -42 0 -49 -3 -55 -22z m100 -33 c9 -21 -15 -47 -40 -43 -15 2 -22 12 -24
31 -3 24 0 27 28 27 18 0 33 -6 36 -15z"/>
<path d="M1922 623 c2 -10 13 -19 25 -21 20 -3 22 -10 25 -80 3 -64 6 -77 21
-80 15 -3 17 6 17 77 0 80 0 80 28 83 16 2 27 9 27 18 0 12 -16 16 -73 18 -66
3 -73 1 -70 -15z"/>
<path d="M2089 556 c-21 -46 -39 -91 -39 -100 0 -20 26 -21 34 -1 4 11 20 15
55 15 34 0 51 -4 55 -15 7 -19 36 -20 36 -1 0 24 -79 186 -90 186 -6 0 -29
-38 -51 -84z m71 -33 c0 -7 -11 -13 -24 -13 -24 0 -24 2 -14 32 10 29 12 30
25 13 7 -11 13 -25 13 -32z"/>
<path d="M837 343 c-4 -3 -7 -39 -7 -80 l0 -73 50 0 c37 0 52 4 59 18 13 25 2
115 -17 130 -17 13 -74 17 -85 5z m71 -45 c3 -13 -3 -18 -22 -18 -20 0 -26 5
-26 21 0 15 5 20 22 17 13 -2 24 -11 26 -20z m8 -59 c8 -13 -13 -29 -38 -29
-11 0 -18 8 -18 20 0 15 7 20 24 20 14 0 28 -5 32 -11z"/>
<path d="M977 343 c-4 -3 -7 -40 -7 -80 0 -55 3 -74 13 -71 6 3 13 14 15 26 4
29 18 28 38 -3 9 -14 23 -25 30 -25 18 0 18 10 -1 37 -13 18 -13 22 0 33 22
18 18 57 -7 74 -23 16 -69 21 -81 9z m68 -48 c0 -13 -8 -21 -22 -23 -19 -3
-23 1 -23 23 0 22 4 26 23 23 14 -2 22 -10 22 -23z"/>
<path d="M1133 274 c-26 -55 -33 -78 -25 -86 8 -8 13 -7 18 5 4 12 18 17 50
17 24 0 44 -4 44 -10 0 -5 7 -10 15 -10 8 0 15 2 15 4 0 12 -70 156 -75 156
-3 0 -22 -34 -42 -76z m57 -21 c0 -7 -9 -13 -20 -13 -17 0 -18 3 -8 25 8 19
14 22 20 13 4 -7 8 -19 8 -25z"/>
<path d="M1278 339 c-11 -6 -18 -22 -18 -40 0 -25 6 -33 35 -45 19 -8 35 -18
35 -23 0 -14 -25 -20 -40 -11 -20 12 -33 1 -19 -16 15 -18 63 -18 79 1 21 25
4 65 -30 72 -21 4 -30 11 -30 25 0 17 5 19 30 13 31 -7 39 2 18 23 -15 15 -37
15 -60 1z"/>
<path d="M1386 343 c-3 -3 -6 -39 -6 -80 0 -58 3 -73 15 -73 12 0 15 15 15 74
0 69 -8 95 -24 79z"/>
<path d="M1437 343 c-4 -3 -7 -39 -7 -80 l0 -73 50 0 c55 0 69 17 18 22 -33 3
-33 3 -36 63 -3 59 -12 82 -25 68z"/>
</g>
</svg>
